<svg width="36" height="13" viewBox="0 0 36 13" fill="none" xmlns="http://www.w3.org/2000/svg">
<path d="M4.55575 10.352V12.112C1.93175 12.112 0.539751 10.784 0.539751 8.32V0.799999H2.45975V4H4.28375V5.76H2.45975V8.304C2.45975 9.76 3.05175 10.352 4.55575 10.352ZM5.231 8C5.231 5.536 6.895 3.888 9.375 3.888C11.855 3.888 13.503 5.536 13.503 8C13.503 10.48 11.855 12.144 9.375 12.144C6.895 12.144 5.231 10.48 5.231 8ZM7.151 8.016C7.151 9.504 8.031 10.384 9.359 10.384C10.703 10.384 11.583 9.504 11.583 8.016C11.583 6.528 10.703 5.648 9.359 5.648C8.031 5.648 7.151 6.528 7.151 8.016ZM14.6363 7.52C14.6363 5.088 16.1723 3.856 18.6043 3.856V5.616C17.3243 5.616 16.5563 6.24 16.5563 7.52V12H14.6363V7.52ZM23.2211 3.888C25.7011 3.888 27.3651 5.552 27.3651 8.032V12H25.4451V11.232C25.0611 11.728 24.2451 12.144 23.0771 12.144C20.7571 12.144 19.0931 10.48 19.0931 8C19.0931 5.536 20.7571 3.888 23.2211 3.888ZM25.4451 8.016C25.4451 6.528 24.5651 5.648 23.2371 5.648C21.8931 5.648 21.0131 6.528 21.0131 8.016C21.0131 9.504 21.8931 10.384 23.2371 10.384C24.5651 10.384 25.4451 9.504 25.4451 8.016ZM30.805 8L28.165 4H30.373L31.941 6.368L33.509 4H35.717L33.077 8L35.717 12H33.509L31.941 9.632L30.373 12H28.165L30.805 8Z" fill="#7C4CFF"/>
</svg>
